<?xml version="1.0" encoding="utf-8"?>
<!-- Generator: Adobe Illustrator 28.0.0, SVG Export Plug-In . SVG Version: 6.00 Build 0)  -->
<svg version="1.1" id="Calque_1" xmlns="http://www.w3.org/2000/svg" xmlns:xlink="http://www.w3.org/1999/xlink" x="0px" y="0px"
	 viewBox="0 0 1443 1018.2" style="enable-background:new 0 0 1443 1018.2;" xml:space="preserve">
<style type="text/css">
	.st0{fill:#FFFFFF;}
	.st1{fill:#451DC7;}
	.st2{clip-path:url(#SVGID_00000138530751111230445980000006627092583918234255_);fill:#451DC7;}
	.st3{clip-path:url(#SVGID_00000138530751111230445980000006627092583918234255_);}
	.st4{clip-path:url(#SVGID_00000059997035371777044060000013649871836319609509_);fill:#451DC7;}
</style>
<g>
	<g>
		<g>
			<g>
				<path class="st1" d="M918.1,792.9c-17.4,0-31.2,10.3-31.2,27c0,16.8,13.8,27,31.2,27c17.4,0,31.2-10.3,31.2-27
					C949.2,803.2,935.5,792.9,918.1,792.9L918.1,792.9z M918.1,841.3c-12.9,0-18.9-9.5-18.9-21.3c0-11.9,5.9-21.3,18.9-21.3
					c12.9,0,18.9,9.5,18.9,21.3C936.9,831.8,931,841.3,918.1,841.3L918.1,841.3z"/>
			</g>
			<polygon class="st1" points="1191.2,794.3 1191.2,846.7 1148.8,813.7 1148.7,845.7 1141.6,845.7 1141.6,793.4 1184.1,826.3 
				1184.1,794.3 			"/>
			<path class="st1" d="M871.4,833.4c-1.3,1.4-2.7,2.6-4.1,3.7c-1.5,1.1-3,1.9-4.7,2.5c-0.6,0.2-1.2,0.4-1.9,0.5
				c-2.1,0.8-4.4,1.2-7.1,1.2c-12.9,0-18.9-9.5-18.9-21.3c0-11.9,5.9-21.3,18.9-21.3c3.3,0,6.1,0.6,8.5,1.7c1.7,0.6,3.3,1.4,4.8,2.4
				c1.6,1,3,2.2,4.4,3.6c1.4,1.4,2.7,2.8,3.8,4.4l5.7-3.7c-1.3-2-2.8-3.9-4.5-5.6c-1.7-1.7-3.7-3.2-5.8-4.4c-2-1.1-4.2-2.1-6.7-2.7
				c-0.2-0.1-0.4-0.1-0.6-0.2c-0.2,0-0.3-0.1-0.5-0.1c-0.5-0.1-1-0.2-1.4-0.3c-0.5-0.1-0.9-0.2-1.4-0.2c-0.3,0-0.6-0.1-0.9-0.1
				c-1.5-0.2-3-0.3-4.6-0.3c-4.8,0-9.1,0.7-13.1,2c-3.9,1.3-7.3,3.2-10.2,5.6c-2.8,2.4-5,5.2-6.6,8.5c-1.4,2.9-2.1,6-2.3,9.3
				c0,0.5,0,1,0,1.5c0,0.5,0,1,0,1.5v0.1c0,0.5,0.1,0.9,0.1,1.4c0,0,0,0.1,0,0.1c0.3,2.9,1.1,5.5,2.3,7.9c1.6,3.3,3.9,6.1,6.8,8.5
				c2.9,2.4,6.4,4.2,10.4,5.5c4,1.3,8.4,1.9,13.2,1.9c2.8,0,5.5-0.4,8.1-1.2c2.5-0.8,4.9-1.8,7.1-3.1c2.2-1.3,4.1-2.8,5.8-4.5
				c1.7-1.7,3.2-3.5,4.4-5.3l-5.7-3.9C873.9,830.5,872.6,832,871.4,833.4z"/>
			<path class="st1" d="M1035.3,794.3h18.8c3.1,0,6,0.3,8.8,0.9c2.7,0.6,5.1,1.5,7.1,2.7c2,1.2,3.6,2.7,4.7,4.5
				c1.1,1.8,1.7,3.9,1.7,6.3c0,2.4-0.6,4.5-1.7,6.3c-1.1,1.8-2.6,3.3-4.5,4.5c-1.9,1.2-4,2.1-6.4,2.7c-2.4,0.6-4.8,0.9-7.4,0.9
				h-11.6v22.4h-9.5V794.3z M1044.9,818.6h12.6c1.6,0,2.9-0.3,4.1-0.8c1.1-0.5,2.1-1.2,2.9-2.1c0.8-0.9,1.3-1.9,1.7-3.1
				c0.4-1.2,0.6-2.4,0.6-3.7c0-1.5-0.3-2.9-0.8-4.1s-1.2-2.2-2-3c-0.9-0.8-1.9-1.4-3-1.9c-1.2-0.4-2.4-0.6-3.8-0.6h-12.2V818.6z"/>
			<path class="st1" d="M1105.2,793.2l26.1,52.5h-12l-7-14h-21.6l-7.3,14h-9.3l27.1-52.5H1105.2z M1093.4,826.9h16.7l-8.2-16.6
				L1093.4,826.9z"/>
			<path class="st1" d="M209.7,793.2l26.1,52.5h-12l-7-14h-21.6l-7.3,14h-9.3l27.1-52.5H209.7z M197.8,826.9h16.7l-8.2-16.6
				L197.8,826.9z"/>
			<path class="st1" d="M1210.5,794.3l20.6,25.5l18.9-25.5h5.5l-21.4,29.2v22.2h-11.2v-21.5l-23.6-29.9H1210.5z"/>
			<g>
				<path class="st1" d="M1012.2,794.3l-21.4,38l-21.8-38h-8.3v51.4h7.3v-34.5l20.1,34.5h5.2l18.2-33.5v33.5h8.9v-51.4H1012.2z"/>
			</g>
		</g>
		<g>
			<g>
				<polygon class="st1" points="254.9,796.1 282.8,847.1 290.1,833.7 269.5,796.1 				"/>
				<g>
					<path class="st1" d="M637.1,794.8c-17,0-30.4,10-30.4,26.4c0,16.4,13.4,26.4,30.4,26.4s30.4-10,30.4-26.4
						C667.5,804.8,654.1,794.8,637.1,794.8 M637.1,842c-12.6,0-18.4-9.2-18.4-20.8c0-11.6,5.8-20.8,18.4-20.8s18.4,9.2,18.4,20.8
						C655.5,832.8,649.7,842,637.1,842"/>
					<polygon class="st1" points="554.3,803 572.6,803 572.6,846.3 584.1,846.3 584.1,803 602.5,803 602.5,796.1 554.3,796.1 					
						"/>
					<path class="st1" d="M525.2,815.2c-7.3-1.9-14.2-3.7-14.2-8.2c0-4.6,6.4-6.6,12.7-6.6c6.3,0,12.2,1.6,18.2,4.8l1.4,0.8v-6.6
						l-0.6-0.3c-5.4-2.7-12.5-4.3-19-4.3c-10.9,0-22.5,4-22.5,15.3c0,10.9,11.2,13.8,21.1,16.4c7.4,2,14.4,3.8,14.4,8.6
						c0,4.6-6.6,6.8-12.8,6.8c-7.3,0-14.5-2.3-21.5-6.7l-0.8-0.5l-3.2,4.7l0.9,0.6c7,4.7,16.5,7.5,25.4,7.5
						c13.6,0,22.4-6.1,22.4-15.3C547,820.9,534.9,817.8,525.2,815.2"/>
					<polygon class="st1" points="457.3,824.6 485.8,824.6 485.8,817.6 457.3,817.6 457.3,803 488,803 488,796 445.8,796 
						445.8,846.2 488.4,846.2 488.5,839.3 457.3,839.3 					"/>
					<polygon class="st1" points="752.3,839.3 752.3,824.6 780.7,824.6 780.7,817.6 752.3,817.6 752.3,803 782.9,803 783,796 
						740.8,796 740.8,846.2 783.4,846.2 783.4,839.3 					"/>
					<path class="st1" d="M332.6,846.2l8,0l4.9-9h24.9l5,9h13l-27.9-51.1L332.6,846.2z M349.2,830.2l8.6-16l8.8,16H349.2z"/>
					<polygon class="st1" points="411,828 393.5,796.1 380.5,796.1 408.3,847.1 436.2,796.1 428.2,796.1 					"/>
					<polygon class="st1" points="720.3,796 720.3,827.3 678.8,795.1 678.8,846.2 685.7,846.2 685.8,815 727.2,847.2 727.2,796 
						727.2,796 					"/>
					<path class="st1" d="M358.9,776.3h-9.1c-10,10.5-19.2,21.5-26.4,33.2c-3,4.8-5.7,9.7-8.1,14.6l-15.3-27.9h-14.6l27.9,51.1l0,0
						C321.7,821.3,337.5,797.3,358.9,776.3"/>
				</g>
			</g>
		</g>
	</g>
	<g>
		<g>
			<g>
				<path class="st1" d="M468.6,170.6c-16.8,0-30.4,13.6-30.4,30.4v424.2c0,3.9-0.7,7.7-2.3,11.3c-1.5,3.6-3.8,6.9-6.7,9.6
					c-2.8,2.6-6.2,4.6-9.9,6c-3.7,1.3-7.6,2-11.5,1.8c-7.7-0.2-14.9-3.3-20.3-8.5c-5.4-5.2-8.4-12.2-8.6-19.5l0-265.6
					c0-1.7-1.4-3-3-3h-33.4c-16.8,0-30.4,13.6-30.4,30.4l0,187.1c-0.1,7.3-3.2,14.3-8.5,19.5c-5.4,5.2-12.6,8.2-20.3,8.5
					c-3.9,0.1-7.8-0.5-11.4-1.8c-3.7-1.3-7-3.3-9.8-5.9c-2.9-2.7-5.2-6-6.8-9.6c-1.6-3.6-2.3-7.5-2.3-11.4V248c0-1.7-1.4-3-3-3
					l-33.4,0c-16.8,0-30.4,13.6-30.4,30.4v299.4c0,24.3,10.1,47.6,28.1,64.8c18,17.2,42.4,26.9,67.9,26.9c1.1,0,2.3,0,3.4,0
					c10.4-0.3,20.7-2.3,30.5-5.8c1.5-0.6,3.3,0.2,4,1.7c7.1,15.4,18.5,28.8,33.1,38.5c15.4,10.3,33.5,16.1,52.3,16.7
					c1.1,0,2.3,0,3.4,0c24.8,0.1,48.7-9.1,66.5-25.6c9.4-8.8,16.9-19.3,22-30.9c5.1-11.6,7.7-24,7.6-36.6V173.6c0-1.7-1.4-3-3-3
					L468.6,170.6z"/>
				<path class="st1" d="M606.7,357.3h-33.4c-16.8,0-30.4,13.6-30.4,30.4V714c0,1.7,1.4,3,3,3h60.7c1.7,0,3-1.4,3-3V360.3
					C609.8,358.6,608.4,357.3,606.7,357.3z"/>
				<path class="st1" d="M674.6,716.3c-3,0-6-0.4-8.8-1.2c-5.3-1.6-9.9-4.5-13.2-8.4c-3.2-3.9-4.9-8.4-4.9-13.1l0-186.7
					c0-16.8,13.6-30.4,30.4-30.4h21.8c0.5,0,1,0.4,1,1l0.6,128.6c0,2.9,3.7,4.1,5.5,1.8l82-110.9c8.8-11.8,24.7-15.7,37.9-9.1
					l19.4,9.7c1.7,0.8,2.2,3,1.1,4.5L697.5,705.6c-2.4,3.3-5.8,5.9-9.8,7.8C683.7,715.3,679.2,716.3,674.6,716.3z"/>
				<path class="st1" d="M945.3,717.7c-25.4,0-49.7-10.1-67.7-28.1c-17.9-18-28-42.3-28.1-67.7v-49.2c0-25.4,10.1-49.8,28-67.7
					c18-18,42.3-28,67.7-28c25.4,0,49.8,10.1,67.7,28c18,18,28,42.3,28,67.7v49.2c0,25.4-10.1,49.7-28.1,67.7
					C995.1,707.6,970.7,717.7,945.3,717.7z M945.3,543.7c-7.7,0-15,3.1-20.5,8.5c-5.4,5.4-8.5,12.8-8.5,20.5v49.2
					c0,7.7,3.1,15.1,8.5,20.5c5.4,5.4,12.8,8.5,20.5,8.5c7.7,0,15.1-3.1,20.5-8.5c5.4-5.4,8.5-12.8,8.5-20.5v-49.2
					c0-7.7-3.1-15.1-8.5-20.5C960.4,546.8,953,543.7,945.3,543.7z"/>
				<path class="st1" d="M1168.5,718c-25.4,0-49.7-10.1-67.7-28.1c-17.9-18-28-42.3-28.1-67.7V573c0-25.4,10.1-49.8,28-67.7
					c18-18,42.3-28,67.7-28c25.4,0,49.8,10.1,67.7,28c18,18,28,42.3,28,67.7v49.2c0,25.4-10.1,49.7-28.1,67.7
					C1218.2,707.8,1193.9,717.9,1168.5,718z M1168.5,544c-7.7,0-15,3.1-20.5,8.5c-5.4,5.4-8.5,12.8-8.5,20.5v49.2
					c0,7.7,3.1,15.1,8.5,20.5s12.8,8.5,20.5,8.5c7.7,0,15.1-3.1,20.5-8.5s8.5-12.8,8.5-20.5V573c0-7.7-3.1-15.1-8.5-20.5
					C1183.5,547,1176.2,544,1168.5,544z"/>
			</g>
		</g>
	</g>
</g>
</svg>
